<svg baseProfile="tiny" xmlns="http://www.w3.org/2000/svg" width="140" height="40" overflow="scroll"><path fill="#222" d="M134.179 27.006v7.943h4.591c.08-2.262.1-4.238.061-5.928-.041-1.688-.227-3.134-.561-4.331-.332-1.197-.844-2.176-1.537-2.933-.691-.76-1.636-1.365-2.833-1.817 1.517-.693 2.688-1.723 3.513-3.095.824-1.369 1.264-3.026 1.317-4.968V5.011h-4.591v7.825c0 1.116-.146 2.041-.439 2.773s-.686 1.325-1.178 1.777-1.064.777-1.717.976a9.186 9.186 0 0 1-2.016.381h-4.511c-.665 0-1.237-.015-1.716-.039V5.011h-4.591v29.98h4.591V21.178a32.054 32.054 0 0 1 1.996-.099c.691-.015 1.33-.015 1.916 0 .585.012 1.091.02 1.517.02h.798c.692.052 1.364.18 2.016.379.652.199 1.225.526 1.717.979s.893 1.044 1.198 1.774c.305.732.459 1.657.459 2.775zm-19.081 5.728h-8.423c-.825 0-1.65-.105-2.476-.32-.824-.211-1.563-.592-2.215-1.138s-1.185-1.257-1.597-2.134c-.413-.88-.619-1.984-.619-3.314v-6.027h10.897v-1.836H99.769v-4.43c0-1.092.014-2.023.04-2.795.027-.772.127-1.404.299-1.896.174-.494.439-.873.799-1.138.359-.265.858-.44 1.497-.519h12.734V4.992h-19.96v19.559c0 3.221.985 5.762 2.954 7.625 1.97 1.863 4.817 2.808 8.543 2.835h8.423v-2.277zM92.982 8.025V5.031H68.153v2.994h10.14v26.944h4.591V8.025h10.098zm-45.546 6.287c0-1.33.206-2.441.619-3.333.412-.89.951-1.603 1.617-2.134a6.122 6.122 0 0 1 2.235-1.138 8.3 8.3 0 0 1 2.475-.3 8.87 8.87 0 0 1 2.495.28c.838.211 1.59.585 2.256 1.116.665.533 1.204 1.251 1.616 2.156.413.905.618 2.023.618 3.354v20.638h4.591V15.55c0-1.625-.253-3.08-.759-4.371a8.718 8.718 0 0 0-2.235-3.294c-.984-.905-2.182-1.603-3.593-2.097-1.41-.492-3.007-.737-4.79-.737-3.806 0-6.712.939-8.722 2.815-2.009 1.875-3.014 4.437-3.014 7.685V34.95h4.591V14.312zM21.071 32.934h-8.422a9.783 9.783 0 0 1-2.476-.32 5.56 5.56 0 0 1-2.215-1.135c-.652-.547-1.185-1.26-1.597-2.137-.413-.878-.619-1.984-.619-3.314V4.992H1.151v19.559c0 3.221.984 5.762 2.954 7.625 1.969 1.863 4.817 2.808 8.543 2.835h8.422v-2.077h.001z"/><path fill-rule="evenodd" fill="#EA2037" d="M30.676 8.714a3.976 3.976 0 1 0 0-7.953 3.976 3.976 0 0 0 0 7.953zm.654 1.934c7.741-.966-.646 22.469 1.57 22.654 1.41.117 4.057-3.088 5.415-3.767.209-.106.837-.394.288.681-1.377 2.689-4.974 7.331-7.665 8.525-2.987 1.328-5.283-.091-5.507-3.23-.302-4.24 2.757-17.186 2.093-18.363-.17-.3-.471-.366-.863-.158-1.637.873-2.86 2.555-4.395 3.415-3.082 1.726 3.909-9.113 9.064-9.757z"/></svg>