<svg xmlns="http://www.w3.org/2000/svg" width="112" height="34"><path fill="#FFF" d="M106.989 22.295v6.311h3.646c.064-1.797.08-3.366.049-4.708-.033-1.342-.18-2.49-.444-3.441s-.671-1.729-1.222-2.33c-.549-.604-1.301-1.084-2.252-1.443 1.205-.551 2.137-1.369 2.791-2.459.656-1.088 1.004-2.404 1.047-3.947V4.82h-3.646v6.217c0 .887-.117 1.621-.351 2.203-.232.582-.545 1.053-.936 1.412s-.846.617-1.363.775c-.518.16-1.053.26-1.602.303h-3.583c-.529 0-.981-.012-1.363-.031V4.82h-3.647v23.819h3.647V17.664a32.08 32.08 0 0 1 3.108-.078c.465.01.866.016 1.205.016h.635a7.38 7.38 0 0 1 1.603.301 3.48 3.48 0 0 1 1.362.777c.39.359.709.83.951 1.41.244.582.365 1.316.365 2.205zm-15.16 4.551h-6.69a7.816 7.816 0 0 1-1.968-.254 4.45 4.45 0 0 1-1.76-.904c-.519-.433-.941-.998-1.269-1.694-.328-.699-.492-1.576-.492-2.633v-4.79h8.658v-1.459H79.65v-3.52c0-.867.011-1.607.031-2.221.021-.614.103-1.115.238-1.506.137-.393.35-.693.635-.904s.682-.35 1.189-.412H91.86V4.805H76.003v15.539c0 2.559.783 4.578 2.349 6.059 1.564 1.481 3.825 2.23 6.787 2.253h6.69v-1.81zM74.259 7.215V4.836H54.533v2.379h8.056v21.406h3.645V7.215zm-36.186 4.994c0-1.057.164-1.939.492-2.648.327-.707.756-1.273 1.284-1.695a4.841 4.841 0 0 1 1.776-.904 6.556 6.556 0 0 1 1.966-.238 7.066 7.066 0 0 1 1.982.223 4.675 4.675 0 0 1 1.792.887c.528.424.957.994 1.284 1.713.327.719.491 1.607.491 2.664v16.396h3.647V13.193c0-1.291-.2-2.447-.603-3.473a6.953 6.953 0 0 0-1.775-2.617c-.783-.719-1.734-1.273-2.855-1.666-1.12-.391-2.389-.586-3.805-.586-3.023 0-5.334.746-6.93 2.236-1.597 1.49-2.395 3.525-2.395 6.105v15.412h3.646V12.209h.003zM17.126 27.004h-6.691a7.808 7.808 0 0 1-1.967-.254 4.426 4.426 0 0 1-1.76-.902c-.519-.434-.941-1-1.269-1.697-.328-.697-.492-1.576-.492-2.633V4.805H1.301v15.539c0 2.559.781 4.578 2.347 6.059 1.564 1.48 3.827 2.23 6.787 2.253h6.691v-1.652zm7.632-19.242a3.159 3.159 0 1 0-.001-6.317 3.159 3.159 0 0 0 .001 6.317zm.52 1.537c6.15-.768-.514 17.852 1.246 17.998 1.121.094 3.224-2.453 4.303-2.992.166-.084.664-.313.229.541-1.095 2.136-3.951 5.824-6.09 6.773-2.373 1.055-4.197-.072-4.375-2.566-.24-3.369 2.19-13.654 1.662-14.59-.135-.238-.373-.291-.686-.125-1.3.693-2.271 2.029-3.491 2.713-2.449 1.371 3.106-7.24 7.202-7.752z"/></svg>