<?xml version="1.0" encoding="utf-8"?>
<!-- Generator: Adobe Illustrator 16.0.0, SVG Export Plug-In . SVG Version: 6.00 Build 0)  -->
<!DOCTYPE svg PUBLIC "-//W3C//DTD SVG 1.1//EN" "http://www.w3.org/Graphics/SVG/1.1/DTD/svg11.dtd">
<svg version="1.1" id="Capa_1" xmlns="http://www.w3.org/2000/svg" xmlns:xlink="http://www.w3.org/1999/xlink" x="0px" y="0px"
	 width="38px" height="83px" viewBox="0 0 38 83" enable-background="new 0 0 38 83" xml:space="preserve">
<path fill="#EA2037" d="M20.08,18.039c4.549,0,8.233-3.696,8.233-8.266c0-4.567-3.686-8.273-8.233-8.273
	c-4.587,0-8.274,3.706-8.274,8.273C11.806,14.343,15.493,18.039,20.08,18.039L20.08,18.039z"/>
<path fill="none" stroke="#EA2037" stroke-miterlimit="10" d="M21.424,22.052c16.095-2-1.335,46.718,3.272,47.105
	c2.912,0.237,8.437-6.413,11.254-7.822c0.412-0.228,1.729-0.839,0.57,1.411c-2.836,5.568-10.324,15.238-15.896,17.729
	c-6.231,2.748-11-0.211-11.467-6.718c-0.627-8.821,5.737-35.736,4.343-38.191c-0.354-0.625-0.979-0.751-1.775-0.32
	c-3.42,1.806-5.961,5.312-9.139,7.105C-3.819,45.922,10.713,23.405,21.424,22.052L21.424,22.052z"/>
<text transform="matrix(1 0 0 1 900 600)" font-family="'MyriadPro-Regular'" font-size="12">EA2037</text>
<path fill="#EA2037" stroke="#EA2037" stroke-miterlimit="10" d="M21.424,22.052c16.095-2-1.335,46.718,3.272,47.105
	c2.912,0.237,8.437-6.413,11.254-7.822c0.412-0.228,1.729-0.839,0.57,1.411c-2.836,5.568-10.324,15.238-15.896,17.729
	c-6.231,2.748-11-0.211-11.467-6.718c-0.627-8.821,5.737-35.736,4.343-38.191c-0.354-0.625-0.979-0.751-1.775-0.32
	c-3.42,1.806-5.961,5.312-9.139,7.105C-3.819,45.922,10.713,23.405,21.424,22.052L21.424,22.052z"/>
</svg>
