<?xml version="1.0" encoding="utf-8"?>
<!-- Generator: Adobe Illustrator 16.0.0, SVG Export Plug-In . SVG Version: 6.00 Build 0)  -->
<!DOCTYPE svg PUBLIC "-//W3C//DTD SVG 1.1//EN" "http://www.w3.org/Graphics/SVG/1.1/DTD/svg11.dtd">
<svg version="1.1" id="Capa_1" xmlns="http://www.w3.org/2000/svg" xmlns:xlink="http://www.w3.org/1999/xlink" x="0px" y="0px"
	 width="112px" height="34px" viewBox="0 0 112 34" enable-background="new 0 0 112 34" xml:space="preserve">
<path fill="#FFFFFF" d="M106.989,22.295v6.311h3.646c0.064-1.797,0.08-3.366,0.049-4.708c-0.033-1.342-0.18-2.49-0.444-3.441
	s-0.671-1.729-1.222-2.33c-0.549-0.604-1.301-1.084-2.252-1.443c1.205-0.551,2.137-1.369,2.791-2.459
	c0.656-1.088,1.004-2.404,1.047-3.947V4.82h-3.646v6.217c0,0.887-0.117,1.621-0.351,2.203c-0.232,0.582-0.545,1.053-0.936,1.412
	s-0.846,0.617-1.363,0.775c-0.518,0.16-1.053,0.26-1.602,0.303c-0.105,0-0.35,0-0.73,0c-0.379,0-0.824,0-1.332,0
	c-0.485,0-0.992,0-1.521,0c-0.529,0-0.981-0.012-1.363-0.031V4.82h-3.647v23.819h3.647V17.664c0.509-0.041,1.035-0.068,1.587-0.078
	c0.549-0.012,1.057-0.012,1.521,0c0.465,0.01,0.866,0.016,1.205,0.016c0.338,0,0.551,0,0.635,0c0.549,0.041,1.084,0.143,1.603,0.301
	c0.518,0.158,0.973,0.418,1.362,0.777c0.39,0.359,0.709,0.83,0.951,1.41C106.868,20.672,106.989,21.406,106.989,22.295
	L106.989,22.295z"/>
<path fill="#FFFFFF" d="M91.829,26.846h-6.69c-0.656,0-1.312-0.084-1.968-0.254c-0.653-0.168-1.241-0.471-1.76-0.904
	c-0.519-0.433-0.941-0.998-1.269-1.694c-0.328-0.699-0.492-1.576-0.492-2.633v-4.79h8.658v-1.459H79.65v-3.52
	c0-0.867,0.011-1.607,0.031-2.221c0.021-0.614,0.103-1.115,0.238-1.506c0.137-0.393,0.35-0.693,0.635-0.904s0.682-0.35,1.189-0.412
	h10.117V4.805H76.003v15.539c0,2.559,0.783,4.578,2.349,6.059c1.564,1.481,3.825,2.23,6.787,2.253h6.69V26.846L91.829,26.846z"/>
<polygon fill="#FFFFFF" points="74.259,7.215 74.259,4.836 54.533,4.836 54.533,7.215 62.589,7.215 62.589,28.621 66.234,28.621 
	66.234,7.215 "/>
<path fill="#FFFFFF" d="M38.073,12.209c0-1.057,0.164-1.939,0.492-2.648c0.327-0.707,0.756-1.273,1.284-1.695
	c0.528-0.424,1.12-0.725,1.776-0.904c0.655-0.18,1.311-0.26,1.966-0.238c0.655-0.021,1.316,0.053,1.982,0.223
	c0.666,0.168,1.263,0.465,1.792,0.887c0.528,0.424,0.957,0.994,1.284,1.713c0.327,0.719,0.491,1.607,0.491,2.664v16.396h3.647
	V13.193c0-1.291-0.2-2.447-0.603-3.473c-0.401-1.025-0.994-1.897-1.775-2.617c-0.783-0.719-1.734-1.273-2.855-1.666
	c-1.12-0.391-2.389-0.586-3.805-0.586c-3.023,0-5.334,0.746-6.93,2.236c-1.597,1.49-2.395,3.525-2.395,6.105v15.412h3.646V12.209
	H38.073z"/>
<path fill="#FFFFFF" d="M17.126,27.004h-6.691c-0.655,0-1.312-0.084-1.967-0.254c-0.655-0.168-1.242-0.469-1.76-0.902
	c-0.519-0.434-0.941-1-1.269-1.697c-0.328-0.697-0.492-1.576-0.492-2.633V4.805H1.301v15.539c0,2.559,0.781,4.578,2.347,6.059
	c1.564,1.48,3.827,2.23,6.787,2.253h6.691V27.004L17.126,27.004z"/>
<path fill="#FFFFFF" d="M24.758,7.762c1.744,0,3.158-1.414,3.158-3.16c0-1.744-1.414-3.158-3.158-3.158
	c-1.745,0-3.16,1.414-3.16,3.158C21.598,6.348,23.013,7.762,24.758,7.762L24.758,7.762z"/>
<path fill="#FFFFFF" d="M25.278,9.299c6.15-0.768-0.514,17.852,1.246,17.998c1.121,0.094,3.224-2.453,4.303-2.992
	c0.166-0.084,0.664-0.313,0.229,0.541c-1.095,2.136-3.951,5.824-6.09,6.773c-2.373,1.055-4.197-0.072-4.375-2.566
	c-0.24-3.369,2.19-13.654,1.662-14.59c-0.135-0.238-0.373-0.291-0.686-0.125c-1.3,0.693-2.271,2.029-3.491,2.713
	C15.627,18.422,21.182,9.811,25.278,9.299L25.278,9.299z"/>
</svg>
