<?xml version="1.0" encoding="utf-8"?>
<!-- Generator: Adobe Illustrator 16.0.0, SVG Export Plug-In . SVG Version: 6.00 Build 0)  -->
<!DOCTYPE svg PUBLIC "-//W3C//DTD SVG 1.1 Tiny//EN" "http://www.w3.org/Graphics/SVG/1.1/DTD/svg11-tiny.dtd">
<svg version="1.1" baseProfile="tiny" id="Capa_1" xmlns="http://www.w3.org/2000/svg" xmlns:xlink="http://www.w3.org/1999/xlink"
	 x="0px" y="0px" width="140px" height="40px" viewBox="0 0 140 40" overflow="scroll" xml:space="preserve">
<g>
	<path fill="#222222" d="M134.179,27.006v7.943h4.591c0.08-2.262,0.1-4.238,0.061-5.928c-0.041-1.688-0.227-3.134-0.561-4.331
		c-0.332-1.197-0.844-2.176-1.537-2.933c-0.691-0.76-1.636-1.365-2.833-1.817c1.517-0.693,2.688-1.723,3.513-3.095
		c0.824-1.369,1.264-3.026,1.317-4.968V5.011h-4.591v7.825c0,1.116-0.146,2.041-0.439,2.773s-0.686,1.325-1.178,1.777
		s-1.064,0.777-1.717,0.976c-0.651,0.202-1.323,0.327-2.016,0.381c-0.133,0-0.438,0-0.918,0c-0.479,0-1.037,0-1.676,0
		c-0.613,0-1.252,0-1.917,0s-1.237-0.015-1.716-0.039V5.011h-4.591v29.98h4.591V21.178c0.639-0.052,1.305-0.086,1.996-0.099
		c0.691-0.015,1.33-0.015,1.916,0c0.585,0.012,1.091,0.02,1.517,0.02s0.692,0,0.798,0c0.692,0.052,1.364,0.18,2.016,0.379
		c0.652,0.199,1.225,0.526,1.717,0.979s0.893,1.044,1.198,1.774C134.025,24.963,134.179,25.888,134.179,27.006L134.179,27.006z"/>
	<path fill="#222222" d="M115.098,32.734h-8.423c-0.825,0-1.65-0.105-2.476-0.32c-0.824-0.211-1.563-0.592-2.215-1.138
		s-1.185-1.257-1.597-2.134c-0.413-0.88-0.619-1.984-0.619-3.314v-6.027h10.897v-1.836H99.769v-4.43c0-1.092,0.014-2.023,0.04-2.795
		c0.027-0.772,0.127-1.404,0.299-1.896c0.174-0.494,0.439-0.873,0.799-1.138c0.359-0.265,0.858-0.44,1.497-0.519h12.734V4.992
		h-19.96v19.559c0,3.221,0.985,5.762,2.954,7.625c1.97,1.863,4.817,2.808,8.543,2.835h8.423V32.734L115.098,32.734z"/>
	<polygon fill="#222222" points="92.982,8.025 92.982,5.031 68.153,5.031 68.153,8.025 78.293,8.025 78.293,34.969 82.884,34.969 
		82.884,8.025 92.982,8.025 	"/>
	<path fill="#222222" d="M47.436,14.312c0-1.33,0.206-2.441,0.619-3.333c0.412-0.89,0.951-1.603,1.617-2.134
		c0.665-0.533,1.41-0.912,2.235-1.138c0.826-0.226,1.65-0.327,2.475-0.3c0.825-0.027,1.657,0.066,2.495,0.28
		c0.838,0.211,1.59,0.585,2.256,1.116c0.665,0.533,1.204,1.251,1.616,2.156c0.413,0.905,0.618,2.023,0.618,3.354v20.638h4.591V15.55
		c0-1.625-0.253-3.08-0.759-4.371c-0.505-1.291-1.25-2.389-2.235-3.294c-0.984-0.905-2.182-1.603-3.593-2.097
		c-1.41-0.492-3.007-0.737-4.79-0.737c-3.806,0-6.712,0.939-8.722,2.815c-2.009,1.875-3.014,4.437-3.014,7.685v19.399h4.591V14.312
		L47.436,14.312z"/>
	<path fill="#222222" d="M21.071,32.934h-8.422c-0.825,0-1.651-0.105-2.476-0.32c-0.825-0.211-1.563-0.59-2.215-1.135
		c-0.652-0.547-1.185-1.26-1.597-2.137c-0.413-0.878-0.619-1.984-0.619-3.314V4.992H1.151v19.559c0,3.221,0.984,5.762,2.954,7.625
		c1.969,1.863,4.817,2.808,8.543,2.835h8.422V32.934L21.071,32.934z"/>
	<path fill-rule="evenodd" fill="#EA2037" d="M30.676,8.714c2.196,0,3.976-1.78,3.976-3.978c0-2.195-1.78-3.975-3.976-3.975
		S26.7,2.541,26.7,4.736C26.7,6.934,28.48,8.714,30.676,8.714L30.676,8.714z"/>
	<path fill-rule="evenodd" fill="#EA2037" d="M31.33,10.648c7.741-0.966-0.646,22.469,1.57,22.654
		c1.41,0.117,4.057-3.088,5.415-3.767c0.209-0.106,0.837-0.394,0.288,0.681c-1.377,2.689-4.974,7.331-7.665,8.525
		c-2.987,1.328-5.283-0.091-5.507-3.23c-0.302-4.24,2.757-17.186,2.093-18.363c-0.17-0.3-0.471-0.366-0.863-0.158
		c-1.637,0.873-2.86,2.555-4.395,3.415C19.184,22.131,26.175,11.292,31.33,10.648L31.33,10.648z"/>
</g>
</svg>
